<svg width="512" height="512" viewBox="0 0 512 512" fill="none" xmlns="http://www.w3.org/2000/svg">
  <defs>
    <linearGradient id="tileGrad" x1="82" y1="68" x2="436" y2="450" gradientUnits="userSpaceOnUse">
      <stop offset="0%" stop-color="#22D3EE"/>
      <stop offset="100%" stop-color="#0369A1"/>
    </linearGradient>
    <linearGradient id="cometGrad" x1="142" y1="142" x2="318" y2="304" gradientUnits="userSpaceOnUse">
      <stop offset="0%" stop-color="#ECFEFF"/>
      <stop offset="100%" stop-color="#BAE6FD"/>
    </linearGradient>
    <filter id="softShadow" x="-50%" y="-50%" width="200%" height="200%">
      <feDropShadow dx="0" dy="18" stdDeviation="18" flood-color="#0C4A6E" flood-opacity="0.24"/>
    </filter>
  </defs>

  <rect x="42" y="42" width="428" height="428" rx="122" fill="url(#tileGrad)" filter="url(#softShadow)"/>
  <rect x="62" y="62" width="388" height="388" rx="106" fill="#BAE6FD" fill-opacity="0.18"/>
  <circle cx="256" cy="256" r="148" stroke="#E0F7FF" stroke-opacity="0.58" stroke-width="12"/>

  <path d="M347 178C312 145 260 136 214 155C166 175 136 222 137 272C138 322 173 366 224 380C273 393 324 377 355 342" stroke="url(#cometGrad)" stroke-width="38" stroke-linecap="round"/>
  <path d="M356 343L401 351L383 306" fill="#E0F7FF"/>
  <circle cx="204" cy="188" r="12" fill="#E0F7FF"/>
  <circle cx="184" cy="337" r="9.5" fill="#BAE6FD"/>

  <path d="M348 142L364 174L396 190L364 206L348 238L332 206L300 190L332 174L348 142Z" fill="#ECFEFF"/>
</svg>
